<svg xmlns="http://www.w3.org/2000/svg" width="295" height="35" viewBox="0 0 295 35">
    <g fill="none" fill-rule="evenodd">
        <g fill="#C11E43">
            <path d="M66.884 22.147c-.84 0-1.178.228-1.178.913v1.695c0 .815.337 1.11 1.515 1.11 1.211 0 1.55.292 1.55.945v2.282c-.607.293-1.448.424-2.627.424-3.03 0-5.353-2.217-5.353-6.848 0-4.793 2.121-7.956 4.882-7.956 2.592 0 2.086 2.185 5.622 2.185 1.986 0 2.289-.26 2.289-1.044 0-.456-.908-3.292-1.245-3.749-.808-1.01-3.266-1.533-5.723-1.533-7.407 0-11.616 5.641-11.616 12.26 0 6.39 4.31 10.598 11.043 10.598 4.443 0 7.71-1.761 7.71-2.446V26.81c0-.653.336-.946 1.246-.946.47 0 .807-.294.807-1.109V23.06c0-.685-.336-.913-1.178-.913h-7.744M81.52 24.761c0-2.309 1.15-3.078 2.77-3.078 2.164 0 3.717 2.644 3.717 5.556 0 2.31-1.148 3.079-2.77 3.079-2.162 0-3.717-2.644-3.717-5.557zM76.384 26c0 4.552 2.771 8 8.38 8 5.608 0 8.38-3.448 8.38-8s-2.772-8-8.38-8c-5.609 0-8.38 3.448-8.38 8zM110.084 10.656c0-.426-.266-.656-.632-.656-.332 0-.698.066-1.164.262l-5.488 2.462c-.63.295-.864.59-.864 1.083v1.444c0 .688.333.95.932.95.764 0 1.197.23 1.197.788v1.05c-.366-.131-1.43-.296-2.56-.296-4.823 0-7.783 3.348-7.783 8.073 0 5.053 2.628 7.613 6.352 7.613 1.995 0 3.46-1.116 3.924-1.904h.067v.82c0 .559.266.756.897.756h4.623c.632 0 .898-.197.898-.756v-1.673c0-.624-.233-.886-.898-.886-.731 0-.997-.294-.997-.787V15.152c0-1.313 1.496-1.378 1.496-2.527v-1.969zm-6.019 17.161c-.699.755-1.597 1.05-2.694 1.05-1.862 0-3.26-1.18-3.26-3.937 0-2.199 1.465-3.314 3.06-3.314 1.763 0 2.894 1.082 2.894 2.395v3.806zM119.918 33.429c.627 0 .89-.2.89-.767v-1.696c0-.633-.263-.9-.923-.9-1.385 0-1.683-.298-1.683-.797v-6.756l2.507-.965c.364-.133.529-.366.529-.765v-2.43c0-.333-.165-.5-.495-.5-.264 0-.56.068-.924.167l-1.617.533v-3.295c0-1.231.33-1.597.924-1.597.693 0 1.023.666 1.484 1.33.495.667 1.056 1.299 2.21 1.299 1.782 0 2.112-.267 2.112-1.298v-1.164c0-2.563-1.32-3.828-5.014-3.828-4.42 0-6.201 2.03-6.201 6.956v3.061l-1.716.732c-.23.133-.362.3-.362.6v2.429c0 .399.197.598.527.598.197 0 .494-.066.791-.133l.76-.266v5.292c0 .5-.264.798-1.156.798-.658 0-.89.266-.89.899v1.696c0 .567.264.767.89.767h7.357"/>
            <path d="M130.16 29.348c-.266.368-1 .97-2.098.97-1.033 0-1.533-.436-1.533-1.34 0-1.974 2.665-2.342 3.631-2.342v2.712zm4.531-6.762c0-3.012-2.032-4.586-5.897-4.586-1.499 0-6.13.536-6.13 1.842v2.812c0 .4.233.602.566.602h1.666c1.599 0 1.966-1.573 3.631-1.573 1.167 0 1.633.367 1.633 1.171v1.105h-.133c-3.199 0-8.563 1.338-8.563 5.523 0 2.844 2 4.518 5.364 4.518 1.333 0 2.766-.435 3.665-1.306.633.703 1.333 1.306 2.266 1.306.566 0 3.731-.268 3.731-1.607V30.92c0-.502-.267-.669-.866-.669-.632 0-.933-.2-.933-.77v-6.895zM137.51 29.759c0 2.939 1.225 4.241 3.57 4.241 2.313 0 4.08-.969 4.08-1.87 0-.434-.407-2.104-1.087-2.104-.238 0-.578.034-.85.034-.782 0-1.088-.467-1.088-1.469v-5.977l1.904-.768c.407-.167.544-.367.544-.735v-2.47c0-.468-.238-.602-.443-.602-.203 0-.543.068-.916.201l-1.089.367v-4.04c0-.4-.272-.567-.544-.567s-.578.1-.885.233l-2.617 1.035c-.374.167-.578.334-.578.701v4.107l-1.259.535c-.237.066-.34.2-.34.7v2.438c0 .367.171.534.477.534.17 0 .408-.033.612-.133l.51-.167v5.776M147.27 29.269c0 .5-.264.798-1.055.798-.593 0-.824.266-.824.899v1.696c0 .567.264.767.89.767h6.262c.627 0 .89-.2.89-.767v-1.696c0-.633-.23-.9-.823-.9s-.858-.298-.858-.797v-6.024c.594-.366 1.45-.865 2.473-.865 1.087 0 1.746.6 1.746 1.664v5.225c0 .5-.263.798-.592.798-.594 0-.824.266-.824.899v1.696c0 .567.264.767.89.767h6.164c.625 0 .89-.2.89-.767v-1.696c0-.633-.232-.9-.825-.9-.956 0-1.22-.298-1.22-.797v-6.756c0-2.962-1.647-4.66-4.35-4.66-1.814 0-3.23.765-4.352 1.565v-4.192c0-1.332 1.385-1.398 1.385-2.564v-1.996c0-.433-.264-.666-.626-.666-.23 0-.593.067-1.054.266l-5.44 2.496c-.626.3-.857.6-.857 1.099v1.464c0 .698.33.965.924.965.758 0 1.186.232 1.186.798v12.18M166.932 25.498c-.205-1.74 1.116-3.815 3.012-3.815.811 0 1.59.367 1.59 1.171 0 .469-.812 1.037-1.895 1.506l-2.707 1.138zm8.054.268c1.828-.804 2.37-1.473 2.37-3.046 0-1.172-1.558-4.72-6.465-4.72-5.619 0-8.393 3.448-8.393 8s2.774 8 8.393 8c3.35 0 6.634-1.941 6.634-3.012 0-.57-.914-2.344-1.692-2.344-.677 0-2.031 1.406-4.57 1.406-1.658 0-2.3-.837-2.74-1.372l6.463-2.912zM178.103 23.044c0 .593.263.825 1.118.825.56 0 .79.263.79.692v4.747c0 .495-.264.79-.987.79-.592 0-.823.264-.823.891v1.68c0 .562.263.76.889.76h7.039c.624 0 .887-.198.887-.76v-1.68c0-.627-.263-.89-.92-.89-1.316 0-1.612-.296-1.612-.791v-5.077c0-.527.362-.89 1.02-.89 1.084 0 1.315.725 3.222.725 1.086 0 1.514-.264 1.514-1.285V19.78c0-1.087-.461-1.45-1.908-1.45-1.513 0-2.27.659-3.322 1.516l-.526.429v-1.681c0-.462-.231-.594-.56-.594-.23 0-.526.1-.92.297l-4.44 2.34c-.264.133-.461.33-.461.726v1.681M190.24 13.067c0 1.642 1.63 2.07 1.63 2.725 0 .855-.729 1.807-.729 2.3 0 .59 1.11 1.05 1.63 1.05.937 0 2.67-3.12 2.67-5.517 0-2.036-1.144-3.054-2.74-3.054-1.282 0-2.461.887-2.461 2.496M194.285 31.69c0 1.674 3.774 2.31 6.192 2.31 3.907 0 6.523-1.405 6.523-5.022 0-5.555-7.847-4.384-7.847-6.66 0-.502.33-.937 1.058-.937.763 0 1.325.536 1.855 1.038.496.535.927 1.037 1.921 1.037h1.357c.563 0 .762-.2.762-.77V20.31c0-1.272-1.92-2.31-5.364-2.31-3.145 0-6.259 1.54-6.259 5.088 0 5.155 7.848 4.284 7.848 6.426 0 .838-.53 1.105-1.225 1.105-2.583 0-2.384-2.176-4.768-2.176h-.729c-1.027 0-1.324.302-1.324 1.74v1.507"/>
        </g>
        <g fill="#C11E43">
            <path d="M217.768 28.457c0 .692-.338 1.002-1.25 1.002-1.181 0-1.518.312-1.518 1.176v1.796c0 .726.337.969 1.181.969h8.877c.843 0 1.18-.243 1.18-.969v-1.796c0-.864-.337-1.176-1.518-1.176-1.451 0-1.789-.31-1.789-1.002v-5.288h3.206c6.21 0 8.133-2.454 8.133-6.567 0-4.148-1.923-6.602-8.133-6.602h-9.956c-.844 0-1.181.242-1.181.968v1.798c0 .863.337 1.175 1.518 1.175.912 0 1.25.31 1.25 1.002v13.514zm5.163-14.378h2.497c2.565 0 3.476.829 3.476 2.523 0 1.693-.91 2.488-3.476 2.488h-2.497v-5.01zM236.517 17.085c0 .347.195.485.457.485.197 0 .425-.105.785-.276l3.336-1.522c.523-.242.687-.414.687-.76v-4.493c0-.38-.164-.519-.393-.519-.261 0-.556.104-.851.242l-3.464 1.59c-.393.173-.557.38-.557.898v4.355zM242.73 33.4c.622 0 .883-.207.883-.796v-1.762c0-.657-.23-.933-.883-.933-.687 0-.948-.31-.948-.83v-6.428c0-1.382 1.308-1.451 1.308-2.662v-2.074c0-.45-.262-.692-.622-.692-.163 0-.458.07-.916.278l-5.395 2.591c-.49.312-.719.623-.719 1.141v1.522c0 .725.327 1.002.85 1.002.62 0 1.046.241 1.046.83v4.562c0 .45-.294.76-.85.76-.653 0-.916.276-.916.933v1.762c0 .589.263.796.883.796h6.28zM251.102 29.654l6.918-7.324c.371-.375.54-.716.54-1.158v-2.589c0-.58-.27-.783-.911-.783h-10.9c-.641 0-.912.204-.912.783v3.474c0 .58.271.784.912.784h1.484c.506 0 .98-.307 1.452-.647.472-.307.978-.647 1.484-.647h1.418l-6.75 7.356c-.269.273-.472.58-.472 1.193v2.52c0 .58.27.784.912.784h11.608c.641 0 .91-.204.91-.784v-3.713c0-.578-.269-.782-.91-.782h-1.687c-.778 0-2.024 1.533-3.341 1.533h-1.755M292.591 30.869h.231c.264 0 .488-.1.488-.354 0-.18-.127-.36-.488-.36-.104 0-.175.007-.23.015v.699zm0 1.141h-.32V29.95c.168-.024.328-.049.568-.049.303 0 .504.065.623.156.12.09.184.23.184.427 0 .271-.177.434-.391.5V31c.175.033.295.197.335.501.048.32.096.443.128.51h-.336c-.049-.067-.096-.255-.136-.526-.047-.263-.176-.361-.432-.361h-.223v.886zm.335-2.636c-.79 0-1.438.698-1.438 1.56 0 .879.647 1.569 1.447 1.569.799.008 1.439-.69 1.439-1.56 0-.87-.64-1.569-1.44-1.569h-.008zm.009-.288c.982 0 1.766.822 1.766 1.849 0 1.043-.784 1.855-1.775 1.855-.982 0-1.782-.812-1.782-1.855 0-1.027.8-1.849 1.782-1.849h.009zM283.932 29.115c-.269.387-1.01 1.019-2.12 1.019-1.044 0-1.549-.457-1.549-1.407 0-2.073 2.693-2.46 3.67-2.46v2.848zm4.58-7.1c0-3.162-2.055-4.815-5.96-4.815-1.515 0-6.194.563-6.194 1.934v2.952c0 .421.235.633.572.633h1.683c1.617 0 1.987-1.652 3.67-1.652 1.178 0 1.65.386 1.65 1.23v1.16h-.135c-3.231 0-8.652 1.405-8.652 5.799 0 2.987 2.02 4.744 5.42 4.744 1.346 0 2.794-.457 3.704-1.37.638.737 1.346 1.37 2.289 1.37.572 0 3.77-.281 3.77-1.687v-1.547c0-.527-.27-.702-.876-.702-.64 0-.942-.211-.942-.808v-7.241z"/>
            <path d="M217.768 28.457c0 .692-.338 1.002-1.25 1.002-1.181 0-1.518.312-1.518 1.176v1.796c0 .726.337.969 1.181.969h8.877c.843 0 1.18-.243 1.18-.969v-1.796c0-.864-.337-1.176-1.518-1.176-1.451 0-1.789-.31-1.789-1.002v-5.288h3.206c6.21 0 8.133-2.454 8.133-6.567 0-4.148-1.923-6.602-8.133-6.602h-9.956c-.844 0-1.181.242-1.181.968v1.798c0 .863.337 1.175 1.518 1.175.912 0 1.25.31 1.25 1.002v13.514zm5.163-14.378h2.497c2.565 0 3.476.829 3.476 2.523 0 1.693-.91 2.488-3.476 2.488h-2.497v-5.01zM236.517 17.085c0 .347.195.485.457.485.197 0 .425-.105.785-.276l3.336-1.522c.523-.242.687-.414.687-.76v-4.493c0-.38-.164-.519-.393-.519-.261 0-.556.104-.851.242l-3.464 1.59c-.393.173-.557.38-.557.898v4.355zM242.73 33.4c.622 0 .883-.207.883-.796v-1.762c0-.657-.23-.933-.883-.933-.687 0-.948-.31-.948-.83v-6.428c0-1.382 1.308-1.451 1.308-2.662v-2.074c0-.45-.262-.692-.622-.692-.163 0-.458.07-.916.278l-5.395 2.591c-.49.312-.719.623-.719 1.141v1.522c0 .725.327 1.002.85 1.002.62 0 1.046.241 1.046.83v4.562c0 .45-.294.76-.85.76-.653 0-.916.276-.916.933v1.762c0 .589.263.796.883.796h6.28z"/>
            <path d="M242.73 33.4c.622 0 .883-.208.883-.797v-1.764c0-.659-.23-.936-.883-.936-.687 0-.948-.31-.948-.83v-6.438c0-1.384 1.308-1.453 1.308-2.666v-2.077c0-.45-.262-.692-.622-.692-.163 0-.458.07-.916.277l-5.395 2.596c-.49.312-.719.624-.719 1.142v1.524c0 .727.327 1.004.85 1.004.62 0 1.046.242 1.046.83v4.57c0 .45-.294.76-.85.76-.653 0-.916.277-.916.936v1.764c0 .59.263.797.883.797h6.28M265.7 29.654l6.918-7.324c.371-.375.54-.716.54-1.158v-2.589c0-.58-.27-.783-.91-.783h-10.9c-.642 0-.912.204-.912.783v3.474c0 .58.27.784.911.784h1.484c.507 0 .98-.307 1.451-.647.473-.307.98-.647 1.486-.647h1.418l-6.75 7.356c-.27.273-.472.58-.472 1.193v2.52c0 .58.27.784.91.784h11.61c.64 0 .91-.204.91-.784v-3.713c0-.578-.27-.782-.91-.782h-1.688c-.777 0-2.025 1.533-3.34 1.533H265.7"/>
        </g>
        <path fill="#1A1919" d="M34.708 31.72c-.782 0-1.776-.272-1.786-1.99-.012-2.099.098-2.995-.116-2.822 0 0-.753 1.66-1.719 2.974-.967 1.314-1.658 2.262-1.836 2.292-.178.03-.977-2.506-3.167-5.593-2.191-3.087-3.494-5.348-5.211-5.44-1.717-.091-2.172.52-2.902 1.009-.729.488-1.755 1.374-2.22.664-.834-1.27 1.451-2.199.682-2.498-.566-.22-1.303.397-1.925 1.04-.622.641-1.186 1.76-2.102 1.069-.57-.43-.41-1.273.02-1.83.555-.717 1.29-1.073.793-1.289-.376-.163-1.654.67-2.021 1.718-.348.997-.008 1.985.646 2.44.978.68 2.126.264 2.723-.489.266-.337.256-.668.282-.106.049 1 .86 1.508 2.196 1.14 1.128-.31 2.052-2.226 3.532-1.829s2.339 1.87 4.264 4.493c2.309 3.148 3.79 7.152 4.026 7.244.236.09 1.095-.764 1.954-1.803.858-1.04.976-1.56 1.184-1.56.207 0-.012.85.859 1.62.621.552 1.564.605 1.844.593v2.217c.292.024 2.134.13 4.009-.822 2.324-1.18 2.848-2.42 2.848-2.42l-6.857-.02v-.002zm1.755.702c.466 0 .841.39.841.87s-.375.87-.84.87a.856.856 0 0 1-.843-.87c0-.48.377-.87.842-.87zm-1.755-1.304l7.25-.004s.25-.464.488-1.123c.233-.643.407-1.277.407-1.277h-8.145v2.404z"/>
        <path fill="#1A1919" d="M3.589 16.854c-.177-.033-.176-.08-.005-.121 1.097-.244 2.292.317 3.05.834.935.687 1.395 1.41 2.268 1.505.82.07 2.193-.658 4.367-1.093 4.294-.947 10.306-1.401 10.307-1.401.001 0 1.942-.142 4.366-.23 2.426-.089 5.17-.046 6.838.046 4.14.229 4.112.18 5.706-1.492.7-.638 1.791-1.388 2.903-1.327.174.009.219.06.046.122-.173.06-1.42.635-3.292 3.241-.154.221-.554.824-1.493.755-.366-.027-2.98-.34-6.147-.457-3.167-.116-6.659-.078-8.89.086-2.229.163-5.451.632-8.576 1.269-3.268.675-5.455 1.912-5.816 2-.772.3-1.192.008-1.52-.391-2.232-3.073-3.933-3.316-4.112-3.346"/>
        <path fill="#1A1919" d="M3.363 18.46c-.21.125-2.057.944-2.298-.338-.084-.766.711-1.451 1.888-1.758 1.184-.26 2.677.178 4.249-.073 1.564-.311 2.642-1.112 3.184-1.451.688-.414 1.272-.515 2.128-.308.855.205 1.65.182 2.909-.778 1.167-.89 1.712-1.174 2.367-1.458.254-.082.242-.152-.047-.152-.234 0-.832-.065-2.515.863-.446.268-1.23.451-2.154.172-.924-.28-1.289-.497-1.951-.35-1.093.284-2.484 1.401-3.094 1.784-.614.369-1.712.61-3.056.174-1.854-.523-5.09.923-4.97 3.487.25 1.612 2.483.984 3.393.263.152-.126.126-.181-.033-.077M41.734 12.867c-.569.17-.83.326-1.24.476-.413.142-.585.156-.892-.051-.465-.314-1.184-.92-2.577-1.399-2.385-.87-4.531-.303-6.27.41-1.427.582-2.674.543-2.917.552-.244.01-.268-.114.01-.13 2.281-.407 2.643-1.106 4.048-1.876 3.436-1.881 5.965-.11 6.734.31.837.46 1.004.888 1.535.919.255.005.994-.418.994-.418.13-.051.409-.207.665-.33 1.794-.855 5.057-.174 5.176 2.391-.102 1.644-2.28 1.42-3.261.882-.165-.097-.144-.154.026-.081.22.086 2.14.564 2.262-.747.012-.772-.844-1.295-2.049-1.389-.662-.026-1.434.15-2.244.48"/>
        <path fill="#1A1919" d="M18.74 12.415c-.496.198-.74.486-.901.68-.367.563.135.726.367.693.161-.026.282-.06.364-.075.068-.013.078.008.012.049-.197.161-.557.446-.978.515-.424.055-.692-.166-.998-.35-.475-.274-1.217-.052-1.343.012-.077.038-.068-.007-.022-.048.323-.262.528-.284.61-.309.081-.025.215-.17.215-.17.531-.534 1.027-.923 1.78-1.29 1.488-.753 3.124-1.37 5.14-1.408 2.434 0 3.88.271 5.924 1.003.156.065.154.098.025.151-.468.197-1.088.358-1.905.448-.666.048-2.292-.022-4.475-.34-1.132-.166-2.63-.216-3.814.439"/>
        <path stroke="#1A1919" stroke-width=".5" d="M18.74 12.415c-.496.198-.74.486-.901.68-.367.563.135.726.367.693.161-.026.282-.06.364-.075.068-.013.078.008.012.049-.197.161-.557.446-.978.515-.424.055-.692-.166-.998-.35-.475-.274-1.217-.052-1.343.012-.077.038-.068-.007-.022-.048.323-.262.528-.284.61-.309.081-.025.215-.17.215-.17.531-.534 1.027-.923 1.78-1.29 1.488-.753 3.124-1.37 5.14-1.408 2.434 0 3.88.271 5.924 1.003.156.065.154.098.025.151-.468.197-1.088.358-1.905.448-.666.048-2.292-.022-4.475-.34-1.132-.166-2.63-.216-3.814.439z"/>
        <path fill="#FACD55" d="M18.757 11.417c.137.095 1.431-.412 3.012-1.3 1.621-.912 1.744-2.058.816-2.54-.93-.483-2.494-.339-4.414-.077-1.92.261-4.48-.053-4.67-1.254-.192-1.2 1.866-2.617 7.925-3.234 3.252-.239 5.065.218 7.335-.096 2.902-.402 3.383-1.539 4.894-2.073 1.523-.538 2.502-.505 3.483-.305.258.046.212-.039.072-.113-.14-.073-2.479-.905-5.299-.021-2.82.882-2.98 2.012-8.916 2.23-6.815.25-11.839 1.749-11.935 4.33-.09 2.403 4.11 2.505 7.762 2.057 1.581-.194 2.424.39 1.637 1.173-.546.542-1.103.79-1.555 1.022-.237.108-.24.136-.147.201"/>
        <path fill="#FACD55" d="M23.494 10.713c.234.04 2.342-.938 3.575-2.17 1.178-1.177.55-2.28-1.621-2.355-1.742-.06-2.836-.054-2.875-.643-.033-.499.78-.955 2.463-.784 1.685.17 3.865 1.025 5.668.312 0 0 1.073-.329 1.76-1.37.075-.127-.06-.18-.192-.076-.136.107-.732.658-2.474.882-1.053.135-2.36-.04-3.067-.161-.708-.121-5.304-.859-7.106.863-.47.49-.572 1.555 1.73 1.593 1.737.027 2.134-.132 3.45.123 1.473.286 1.107 1.527.422 2.224-.685.697-1.515 1.306-1.73 1.423-.035.019-.12.07-.066.115a.12.12 0 0 0 .063.024"/>
        <path fill="#1A1919" d="M34.559 27.857h8.412s.153-.561.267-1.021c.115-.459.306-1.122.306-1.122H34.56v2.143M35.774 22.175v.352s-2.501 1.104-3.264.151c-.337-.42-.334-1.1.122-1.377.567-.345 1.17-.035 1.565.233.584.395 1.774.34 2.185.07 1.352-.884 1.082-2.5.637-3.12-.42-.586-.969-1.715-4.317-1.998-1.808-.152-3.114-.081-4.896 1.222-.259.233-.723-.435-2.558-.386-1.522.04-1.988.453-2.342.632-.15.103-.112.199.015.187.417-.037.89-.224 1.933-.216 1.938.014 2.8.951 3.309.856.33-.062.528-.45 1.32-.871.795-.421 1.567-.714 3.005-.714 1.436 0 2.117.515 2.467.745.45.294 1.072.981 1.072 2.005 0 1.023-.926.896-1.378.654-.452-.24-1.703-1.066-2.828-.13-1.096.912-.597 2.341.066 2.943.643.581 1.4.512 1.698.481 1.744-.182 2.19-1.216 2.19-1.216v2.302l9.068.02s.371-.941.686-1.598c.313-.657.78-1.227.78-1.227H35.774M44.976 29.535h.193c.238 0 .424-.079.424-.285 0-.166-.117-.293-.393-.293-.1 0-.17 0-.224.008v.57zm0 1.14h-.408v-1.979c.154-.024.323-.055.616-.055.331 0 .531.055.662.158.108.087.17.222.17.428a.472.472 0 0 1-.37.46v.015c.17.031.277.19.308.483.04.309.077.428.108.49h-.424c-.045-.07-.077-.245-.115-.514-.03-.213-.154-.3-.363-.3h-.184v.815zm.293-2.462c-.725 0-1.31.641-1.31 1.434 0 .8.585 1.425 1.317 1.425.731.008 1.324-.626 1.324-1.425 0-.793-.593-1.434-1.324-1.434h-.007zm.015-.356c.954 0 1.716.799 1.716 1.78 0 1-.762 1.792-1.724 1.792-.954 0-1.732-.792-1.732-1.791 0-.982.778-1.78 1.732-1.78h.008z"/>
    </g>
</svg>
